<mxfile host="app.diagrams.net" modified="2022-08-04T15:05:53.799Z" agent="5.0 (Windows NT 10.0; Win64; x64) AppleWebKit/537.36 (KHTML, like Gecko) Chrome/104.0.0.0 Safari/537.36" etag="24CTG7vmn8wUAwooOtUn" version="20.2.3" type="github">
  <diagram id="C5RBs43oDa-KdzZeNtuy" name="Page-1">
    <mxGraphModel dx="633" dy="1426" grid="1" gridSize="10" guides="1" tooltips="1" connect="1" arrows="1" fold="1" page="1" pageScale="1" pageWidth="827" pageHeight="1169" math="0" shadow="0">
      <root>
        <mxCell id="WIyWlLk6GJQsqaUBKTNV-0" />
        <mxCell id="WIyWlLk6GJQsqaUBKTNV-1" parent="WIyWlLk6GJQsqaUBKTNV-0" />
        <mxCell id="wZddlOsyN2LUeJkW2pRp-1" value="" style="edgeStyle=orthogonalEdgeStyle;rounded=0;orthogonalLoop=1;jettySize=auto;html=1;" edge="1" parent="WIyWlLk6GJQsqaUBKTNV-1" source="AeTwbxAiObhPmluBBlwX-1" target="wZddlOsyN2LUeJkW2pRp-0">
          <mxGeometry relative="1" as="geometry" />
        </mxCell>
        <mxCell id="AeTwbxAiObhPmluBBlwX-1" value="START" style="ellipse;whiteSpace=wrap;html=1;" parent="WIyWlLk6GJQsqaUBKTNV-1" vertex="1">
          <mxGeometry x="192.27" y="-1150" width="120" height="40" as="geometry" />
        </mxCell>
        <mxCell id="AeTwbxAiObhPmluBBlwX-3" value="Dsiplay string&lt;br&gt;Display questionC&lt;br&gt;Display question" style="shape=parallelogram;perimeter=parallelogramPerimeter;whiteSpace=wrap;html=1;fixedSize=1;" parent="WIyWlLk6GJQsqaUBKTNV-1" vertex="1">
          <mxGeometry x="368.95" y="-1110" width="140" height="50" as="geometry" />
        </mxCell>
        <mxCell id="AeTwbxAiObhPmluBBlwX-4" value="" style="edgeStyle=orthogonalEdgeStyle;rounded=0;orthogonalLoop=1;jettySize=auto;html=1;" parent="WIyWlLk6GJQsqaUBKTNV-1" source="AeTwbxAiObhPmluBBlwX-5" target="AeTwbxAiObhPmluBBlwX-7" edge="1">
          <mxGeometry relative="1" as="geometry" />
        </mxCell>
        <mxCell id="AeTwbxAiObhPmluBBlwX-5" value="CALL inputTaker" style="shape=process;whiteSpace=wrap;html=1;backgroundOutline=1;" parent="WIyWlLk6GJQsqaUBKTNV-1" vertex="1">
          <mxGeometry x="78.52" y="-809.5" width="120" height="30" as="geometry" />
        </mxCell>
        <mxCell id="AeTwbxAiObhPmluBBlwX-6" style="edgeStyle=orthogonalEdgeStyle;rounded=0;orthogonalLoop=1;jettySize=auto;html=1;exitX=0.5;exitY=1;exitDx=0;exitDy=0;entryX=0.5;entryY=0;entryDx=0;entryDy=0;" parent="WIyWlLk6GJQsqaUBKTNV-1" source="AeTwbxAiObhPmluBBlwX-7" target="AeTwbxAiObhPmluBBlwX-9" edge="1">
          <mxGeometry relative="1" as="geometry" />
        </mxCell>
        <mxCell id="AeTwbxAiObhPmluBBlwX-7" value="CALL&amp;nbsp; combine" style="shape=process;whiteSpace=wrap;html=1;backgroundOutline=1;" parent="WIyWlLk6GJQsqaUBKTNV-1" vertex="1">
          <mxGeometry x="78.52" y="-755" width="120" height="25.5" as="geometry" />
        </mxCell>
        <mxCell id="AeTwbxAiObhPmluBBlwX-8" value="" style="edgeStyle=orthogonalEdgeStyle;rounded=0;orthogonalLoop=1;jettySize=auto;html=1;" parent="WIyWlLk6GJQsqaUBKTNV-1" source="AeTwbxAiObhPmluBBlwX-9" target="AeTwbxAiObhPmluBBlwX-11" edge="1">
          <mxGeometry relative="1" as="geometry" />
        </mxCell>
        <mxCell id="AeTwbxAiObhPmluBBlwX-9" value="CALL&amp;nbsp; ifBig" style="shape=process;whiteSpace=wrap;html=1;backgroundOutline=1;" parent="WIyWlLk6GJQsqaUBKTNV-1" vertex="1">
          <mxGeometry x="78.52" y="-709.5" width="120" height="29.5" as="geometry" />
        </mxCell>
        <mxCell id="AeTwbxAiObhPmluBBlwX-10" style="edgeStyle=orthogonalEdgeStyle;rounded=0;orthogonalLoop=1;jettySize=auto;html=1;exitX=0.5;exitY=1;exitDx=0;exitDy=0;entryX=0.5;entryY=0;entryDx=0;entryDy=0;" parent="WIyWlLk6GJQsqaUBKTNV-1" source="AeTwbxAiObhPmluBBlwX-11" target="AeTwbxAiObhPmluBBlwX-12" edge="1">
          <mxGeometry relative="1" as="geometry" />
        </mxCell>
        <mxCell id="AeTwbxAiObhPmluBBlwX-11" value="DI&amp;nbsp;&lt;font style=&quot;font-size: 10px&quot;&gt;&amp;lt;&lt;/font&gt;&lt;font style=&quot;font-size: 13px&quot;&gt;---&lt;/font&gt;&amp;nbsp;OFFSET y_values&lt;br&gt;[DI+1]&amp;nbsp;&lt;font style=&quot;font-size: 10px;&quot;&gt;&amp;lt;&lt;/font&gt;&lt;font style=&quot;font-size: 13px;&quot;&gt;---&lt;/font&gt;&amp;nbsp;0" style="rounded=1;whiteSpace=wrap;html=1;fontSize=12;glass=0;strokeWidth=1;shadow=0;" parent="WIyWlLk6GJQsqaUBKTNV-1" vertex="1">
          <mxGeometry x="53.519999999999996" y="-649.5" width="170" height="40" as="geometry" />
        </mxCell>
        <mxCell id="AeTwbxAiObhPmluBBlwX-12" value="[SI] &amp;gt; 238" style="rhombus;whiteSpace=wrap;html=1;shadow=0;fontFamily=Helvetica;fontSize=12;align=center;strokeWidth=1;spacing=6;spacingTop=-4;" parent="WIyWlLk6GJQsqaUBKTNV-1" vertex="1">
          <mxGeometry x="92.27" y="-584.5" width="100" height="40" as="geometry" />
        </mxCell>
        <mxCell id="AeTwbxAiObhPmluBBlwX-13" value="No" style="edgeStyle=orthogonalEdgeStyle;rounded=0;html=1;jettySize=auto;orthogonalLoop=1;fontSize=11;endArrow=block;endFill=0;endSize=8;strokeWidth=1;shadow=0;labelBackgroundColor=none;exitX=0.5;exitY=1;exitDx=0;exitDy=0;entryX=0.5;entryY=0;entryDx=0;entryDy=0;" parent="WIyWlLk6GJQsqaUBKTNV-1" source="AeTwbxAiObhPmluBBlwX-12" target="AeTwbxAiObhPmluBBlwX-73" edge="1">
          <mxGeometry x="-0.6822" y="14" relative="1" as="geometry">
            <mxPoint as="offset" />
            <mxPoint x="143.02" y="-519.5" as="targetPoint" />
            <Array as="points" />
            <mxPoint x="141.27" y="-485" as="sourcePoint" />
          </mxGeometry>
        </mxCell>
        <mxCell id="AeTwbxAiObhPmluBBlwX-14" value="Yes" style="rounded=0;html=1;jettySize=auto;orthogonalLoop=1;fontSize=11;endArrow=block;endFill=0;endSize=8;strokeWidth=1;shadow=0;labelBackgroundColor=none;edgeStyle=orthogonalEdgeStyle;exitX=0;exitY=0.5;exitDx=0;exitDy=0;" parent="WIyWlLk6GJQsqaUBKTNV-1" source="AeTwbxAiObhPmluBBlwX-12" edge="1">
          <mxGeometry x="-0.8925" y="10" relative="1" as="geometry">
            <mxPoint as="offset" />
            <mxPoint x="144.02" y="-399.5" as="targetPoint" />
            <Array as="points">
              <mxPoint x="52.019999999999996" y="-564.5" />
              <mxPoint x="52.019999999999996" y="-399.5" />
              <mxPoint x="144.02" y="-399.5" />
            </Array>
            <mxPoint x="91.27" y="-565" as="sourcePoint" />
          </mxGeometry>
        </mxCell>
        <mxCell id="AeTwbxAiObhPmluBBlwX-15" style="edgeStyle=orthogonalEdgeStyle;rounded=0;orthogonalLoop=1;jettySize=auto;html=1;exitX=0.5;exitY=1;exitDx=0;exitDy=0;entryX=0.5;entryY=0;entryDx=0;entryDy=0;" parent="WIyWlLk6GJQsqaUBKTNV-1" source="AeTwbxAiObhPmluBBlwX-16" target="AeTwbxAiObhPmluBBlwX-69" edge="1">
          <mxGeometry relative="1" as="geometry">
            <mxPoint x="143.785" y="-379.25" as="targetPoint" />
          </mxGeometry>
        </mxCell>
        <mxCell id="AeTwbxAiObhPmluBBlwX-16" value="CALL&amp;nbsp; all_Y_values" style="shape=process;whiteSpace=wrap;html=1;backgroundOutline=1;" parent="WIyWlLk6GJQsqaUBKTNV-1" vertex="1">
          <mxGeometry x="74.28" y="-439.25" width="137.5" height="29.5" as="geometry" />
        </mxCell>
        <mxCell id="AeTwbxAiObhPmluBBlwX-17" value="END" style="ellipse;whiteSpace=wrap;html=1;" parent="WIyWlLk6GJQsqaUBKTNV-1" vertex="1">
          <mxGeometry x="83.02999999999999" y="-300" width="120" height="40" as="geometry" />
        </mxCell>
        <mxCell id="AeTwbxAiObhPmluBBlwX-18" value="y_values db &quot;&quot;, &#39;$&#39;" style="rounded=0;whiteSpace=wrap;html=1;" parent="WIyWlLk6GJQsqaUBKTNV-1" vertex="1">
          <mxGeometry x="540" y="-1100" width="122.5" height="20" as="geometry" />
        </mxCell>
        <mxCell id="AeTwbxAiObhPmluBBlwX-30" value="Yes" style="rounded=0;html=1;jettySize=auto;orthogonalLoop=1;fontSize=11;endArrow=block;endFill=0;endSize=8;strokeWidth=1;shadow=0;labelBackgroundColor=none;edgeStyle=orthogonalEdgeStyle;exitX=0.5;exitY=1;exitDx=0;exitDy=0;entryX=0.5;entryY=0;entryDx=0;entryDy=0;" parent="WIyWlLk6GJQsqaUBKTNV-1" target="AeTwbxAiObhPmluBBlwX-33" edge="1">
          <mxGeometry x="0.0008" y="20" relative="1" as="geometry">
            <mxPoint as="offset" />
            <mxPoint x="470" y="-660" as="targetPoint" />
            <Array as="points">
              <mxPoint x="350" y="-650" />
              <mxPoint x="350" y="-625" />
            </Array>
            <mxPoint x="349.5" y="-670" as="sourcePoint" />
          </mxGeometry>
        </mxCell>
        <mxCell id="AeTwbxAiObhPmluBBlwX-32" value="" style="edgeStyle=orthogonalEdgeStyle;rounded=0;orthogonalLoop=1;jettySize=auto;html=1;" parent="WIyWlLk6GJQsqaUBKTNV-1" source="AeTwbxAiObhPmluBBlwX-33" target="AeTwbxAiObhPmluBBlwX-34" edge="1">
          <mxGeometry relative="1" as="geometry" />
        </mxCell>
        <mxCell id="AeTwbxAiObhPmluBBlwX-33" value="SI&amp;nbsp;&lt;font style=&quot;font-size: 10px&quot;&gt;&amp;lt;&lt;/font&gt;&lt;font style=&quot;font-size: 13px&quot;&gt;---&lt;/font&gt;&amp;nbsp; 50h&lt;br&gt;[SI]&amp;nbsp;&lt;font style=&quot;font-size: 10px&quot;&gt;&amp;lt;&lt;/font&gt;&lt;font style=&quot;font-size: 13px&quot;&gt;---&lt;/font&gt;&amp;nbsp; 0h&lt;br&gt;[SI+1]&amp;nbsp;&lt;font style=&quot;font-size: 10px;&quot;&gt;&amp;lt;&lt;/font&gt;&lt;font style=&quot;font-size: 13px;&quot;&gt;---&lt;/font&gt;&amp;nbsp; 0h" style="rounded=1;whiteSpace=wrap;html=1;fontSize=12;glass=0;strokeWidth=1;shadow=0;" parent="WIyWlLk6GJQsqaUBKTNV-1" vertex="1">
          <mxGeometry x="296.75" y="-650" width="105.5" height="50" as="geometry" />
        </mxCell>
        <mxCell id="AeTwbxAiObhPmluBBlwX-34" value="END" style="ellipse;whiteSpace=wrap;html=1;" parent="WIyWlLk6GJQsqaUBKTNV-1" vertex="1">
          <mxGeometry x="289.5" y="-580" width="120" height="40" as="geometry" />
        </mxCell>
        <mxCell id="AeTwbxAiObhPmluBBlwX-35" value="" style="edgeStyle=orthogonalEdgeStyle;rounded=0;orthogonalLoop=1;jettySize=auto;html=1;entryX=0.5;entryY=0;entryDx=0;entryDy=0;" parent="WIyWlLk6GJQsqaUBKTNV-1" source="AeTwbxAiObhPmluBBlwX-36" target="AeTwbxAiObhPmluBBlwX-37" edge="1">
          <mxGeometry relative="1" as="geometry">
            <mxPoint x="582.95" y="-925.5" as="targetPoint" />
          </mxGeometry>
        </mxCell>
        <mxCell id="AeTwbxAiObhPmluBBlwX-36" value="ifBig" style="ellipse;whiteSpace=wrap;html=1;" parent="WIyWlLk6GJQsqaUBKTNV-1" vertex="1">
          <mxGeometry x="523.95" y="-971" width="120" height="40" as="geometry" />
        </mxCell>
        <mxCell id="AeTwbxAiObhPmluBBlwX-37" value="[SI] &amp;lt; 238" style="rhombus;whiteSpace=wrap;html=1;shadow=0;fontFamily=Helvetica;fontSize=12;align=center;strokeWidth=1;spacing=6;spacingTop=-4;" parent="WIyWlLk6GJQsqaUBKTNV-1" vertex="1">
          <mxGeometry x="525.45" y="-905.5" width="117" height="50" as="geometry" />
        </mxCell>
        <mxCell id="AeTwbxAiObhPmluBBlwX-38" value="No" style="rounded=0;html=1;jettySize=auto;orthogonalLoop=1;fontSize=11;endArrow=block;endFill=0;endSize=8;strokeWidth=1;shadow=0;labelBackgroundColor=none;edgeStyle=orthogonalEdgeStyle;exitX=0.5;exitY=1;exitDx=0;exitDy=0;entryX=0.5;entryY=0;entryDx=0;entryDy=0;" parent="WIyWlLk6GJQsqaUBKTNV-1" source="AeTwbxAiObhPmluBBlwX-37" target="AeTwbxAiObhPmluBBlwX-41" edge="1">
          <mxGeometry y="-23" relative="1" as="geometry">
            <mxPoint as="offset" />
            <mxPoint x="582.95" y="-835.5" as="targetPoint" />
            <Array as="points" />
            <mxPoint x="419.45" y="-665.5" as="sourcePoint" />
          </mxGeometry>
        </mxCell>
        <mxCell id="AeTwbxAiObhPmluBBlwX-39" value="Yes" style="rounded=0;html=1;jettySize=auto;orthogonalLoop=1;fontSize=11;endArrow=block;endFill=0;endSize=8;strokeWidth=1;shadow=0;labelBackgroundColor=none;edgeStyle=orthogonalEdgeStyle;exitX=0;exitY=0.5;exitDx=0;exitDy=0;" parent="WIyWlLk6GJQsqaUBKTNV-1" source="AeTwbxAiObhPmluBBlwX-37" edge="1">
          <mxGeometry x="-0.8598" y="-15" relative="1" as="geometry">
            <mxPoint as="offset" />
            <mxPoint x="583.95" y="-635.5" as="targetPoint" />
            <Array as="points">
              <mxPoint x="499.95" y="-880.5" />
            </Array>
            <mxPoint x="519.95" y="-865.5" as="sourcePoint" />
          </mxGeometry>
        </mxCell>
        <mxCell id="AeTwbxAiObhPmluBBlwX-40" style="edgeStyle=orthogonalEdgeStyle;rounded=0;orthogonalLoop=1;jettySize=auto;html=1;exitX=0.5;exitY=1;exitDx=0;exitDy=0;entryX=0.5;entryY=0;entryDx=0;entryDy=0;" parent="WIyWlLk6GJQsqaUBKTNV-1" source="AeTwbxAiObhPmluBBlwX-41" target="AeTwbxAiObhPmluBBlwX-43" edge="1">
          <mxGeometry relative="1" as="geometry" />
        </mxCell>
        <mxCell id="AeTwbxAiObhPmluBBlwX-41" value="Display newLine&lt;br&gt;" style="shape=parallelogram;perimeter=parallelogramPerimeter;whiteSpace=wrap;html=1;fixedSize=1;" parent="WIyWlLk6GJQsqaUBKTNV-1" vertex="1">
          <mxGeometry x="514.2" y="-835.5" width="140" height="20" as="geometry" />
        </mxCell>
        <mxCell id="AeTwbxAiObhPmluBBlwX-42" value="" style="edgeStyle=orthogonalEdgeStyle;rounded=0;orthogonalLoop=1;jettySize=auto;html=1;exitX=0.5;exitY=1;exitDx=0;exitDy=0;entryX=0.5;entryY=0;entryDx=0;entryDy=0;" parent="WIyWlLk6GJQsqaUBKTNV-1" source="AeTwbxAiObhPmluBBlwX-43" target="AeTwbxAiObhPmluBBlwX-45" edge="1">
          <mxGeometry relative="1" as="geometry">
            <mxPoint x="589.95" y="-745.5" as="targetPoint" />
            <Array as="points" />
          </mxGeometry>
        </mxCell>
        <mxCell id="AeTwbxAiObhPmluBBlwX-43" value="AH&amp;nbsp;&lt;font style=&quot;font-size: 10px&quot;&gt;&amp;lt;&lt;/font&gt;&lt;font style=&quot;font-size: 13px&quot;&gt;---&lt;/font&gt;&amp;nbsp;00" style="rounded=1;whiteSpace=wrap;html=1;fontSize=12;glass=0;strokeWidth=1;shadow=0;" parent="WIyWlLk6GJQsqaUBKTNV-1" vertex="1">
          <mxGeometry x="534.2" y="-790.5" width="100" height="20" as="geometry" />
        </mxCell>
        <mxCell id="AeTwbxAiObhPmluBBlwX-44" value="" style="edgeStyle=orthogonalEdgeStyle;rounded=0;orthogonalLoop=1;jettySize=auto;html=1;" parent="WIyWlLk6GJQsqaUBKTNV-1" source="AeTwbxAiObhPmluBBlwX-45" target="AeTwbxAiObhPmluBBlwX-47" edge="1">
          <mxGeometry relative="1" as="geometry" />
        </mxCell>
        <mxCell id="AeTwbxAiObhPmluBBlwX-45" value="INT 16h" style="shape=process;whiteSpace=wrap;html=1;backgroundOutline=1;" parent="WIyWlLk6GJQsqaUBKTNV-1" vertex="1">
          <mxGeometry x="528.95" y="-745.5" width="110" height="20" as="geometry" />
        </mxCell>
        <mxCell id="AeTwbxAiObhPmluBBlwX-46" value="" style="edgeStyle=orthogonalEdgeStyle;rounded=0;orthogonalLoop=1;jettySize=auto;html=1;" parent="WIyWlLk6GJQsqaUBKTNV-1" source="AeTwbxAiObhPmluBBlwX-47" target="AeTwbxAiObhPmluBBlwX-48" edge="1">
          <mxGeometry relative="1" as="geometry" />
        </mxCell>
        <mxCell id="AeTwbxAiObhPmluBBlwX-47" value="Display newLine&lt;br&gt;Display newLine&lt;br&gt;Display wrongInput" style="shape=parallelogram;perimeter=parallelogramPerimeter;whiteSpace=wrap;html=1;fixedSize=1;" parent="WIyWlLk6GJQsqaUBKTNV-1" vertex="1">
          <mxGeometry x="508.95" y="-700.5" width="150.5" height="50" as="geometry" />
        </mxCell>
        <mxCell id="AeTwbxAiObhPmluBBlwX-48" value="END" style="ellipse;whiteSpace=wrap;html=1;" parent="WIyWlLk6GJQsqaUBKTNV-1" vertex="1">
          <mxGeometry x="523.95" y="-620" width="120" height="40" as="geometry" />
        </mxCell>
        <mxCell id="AeTwbxAiObhPmluBBlwX-49" value="" style="edgeStyle=orthogonalEdgeStyle;rounded=0;orthogonalLoop=1;jettySize=auto;html=1;" parent="WIyWlLk6GJQsqaUBKTNV-1" source="AeTwbxAiObhPmluBBlwX-50" target="AeTwbxAiObhPmluBBlwX-52" edge="1">
          <mxGeometry relative="1" as="geometry" />
        </mxCell>
        <mxCell id="AeTwbxAiObhPmluBBlwX-50" value="square_Root" style="ellipse;whiteSpace=wrap;html=1;" parent="WIyWlLk6GJQsqaUBKTNV-1" vertex="1">
          <mxGeometry x="279.99999999999994" y="-490.5" width="120" height="40" as="geometry" />
        </mxCell>
        <mxCell id="AeTwbxAiObhPmluBBlwX-51" value="" style="edgeStyle=orthogonalEdgeStyle;rounded=0;orthogonalLoop=1;jettySize=auto;html=1;" parent="WIyWlLk6GJQsqaUBKTNV-1" source="AeTwbxAiObhPmluBBlwX-52" target="AeTwbxAiObhPmluBBlwX-54" edge="1">
          <mxGeometry relative="1" as="geometry" />
        </mxCell>
        <mxCell id="AeTwbxAiObhPmluBBlwX-52" value="BX&amp;nbsp;&lt;font style=&quot;font-size: 10px&quot;&gt;&amp;lt;&lt;/font&gt;&lt;font style=&quot;font-size: 13px&quot;&gt;---&lt;/font&gt;&amp;nbsp; [DI+2]&lt;br&gt;AL&amp;nbsp;&lt;font style=&quot;font-size: 10px&quot;&gt;&amp;lt;&lt;/font&gt;&lt;font style=&quot;font-size: 13px&quot;&gt;---&lt;/font&gt;&amp;nbsp; [SI]&lt;br&gt;AX&amp;nbsp;&lt;font style=&quot;font-size: 10px&quot;&gt;&amp;lt;&lt;/font&gt;&lt;font style=&quot;font-size: 13px&quot;&gt;---&lt;/font&gt;&amp;nbsp; AL*AL&lt;br&gt;BX&amp;nbsp;&lt;font style=&quot;font-size: 10px&quot;&gt;&amp;lt;&lt;/font&gt;&lt;font style=&quot;font-size: 13px&quot;&gt;---&lt;/font&gt;&amp;nbsp; BX - AX" style="rounded=1;whiteSpace=wrap;html=1;fontSize=12;glass=0;strokeWidth=1;shadow=0;" parent="WIyWlLk6GJQsqaUBKTNV-1" vertex="1">
          <mxGeometry x="420" y="-510.5" width="115" height="80" as="geometry" />
        </mxCell>
        <mxCell id="AeTwbxAiObhPmluBBlwX-53" value="" style="edgeStyle=orthogonalEdgeStyle;rounded=0;orthogonalLoop=1;jettySize=auto;html=1;" parent="WIyWlLk6GJQsqaUBKTNV-1" source="AeTwbxAiObhPmluBBlwX-54" target="AeTwbxAiObhPmluBBlwX-59" edge="1">
          <mxGeometry relative="1" as="geometry">
            <Array as="points">
              <mxPoint x="480" y="-370.5" />
              <mxPoint x="480" y="-370.5" />
            </Array>
          </mxGeometry>
        </mxCell>
        <mxCell id="AeTwbxAiObhPmluBBlwX-54" value="CL&amp;nbsp;&lt;font style=&quot;font-size: 10px&quot;&gt;&amp;lt;&lt;/font&gt;&lt;font style=&quot;font-size: 13px&quot;&gt;---&lt;/font&gt;&amp;nbsp; 0" style="rounded=1;whiteSpace=wrap;html=1;fontSize=12;glass=0;strokeWidth=1;shadow=0;" parent="WIyWlLk6GJQsqaUBKTNV-1" vertex="1">
          <mxGeometry x="423.94" y="-410.5" width="105.5" height="20" as="geometry" />
        </mxCell>
        <mxCell id="AeTwbxAiObhPmluBBlwX-55" value="AX &amp;gt; BX" style="rhombus;whiteSpace=wrap;html=1;shadow=0;fontFamily=Helvetica;fontSize=12;align=center;strokeWidth=1;spacing=6;spacingTop=-4;" parent="WIyWlLk6GJQsqaUBKTNV-1" vertex="1">
          <mxGeometry x="430.32" y="-310" width="100" height="30" as="geometry" />
        </mxCell>
        <mxCell id="AeTwbxAiObhPmluBBlwX-56" value="No" style="rounded=0;html=1;jettySize=auto;orthogonalLoop=1;fontSize=11;endArrow=block;endFill=0;endSize=8;strokeWidth=1;shadow=0;labelBackgroundColor=none;edgeStyle=orthogonalEdgeStyle;exitX=0.5;exitY=1;exitDx=0;exitDy=0;entryX=0.5;entryY=0;entryDx=0;entryDy=0;" parent="WIyWlLk6GJQsqaUBKTNV-1" source="AeTwbxAiObhPmluBBlwX-55" target="AeTwbxAiObhPmluBBlwX-60" edge="1">
          <mxGeometry x="-1" y="10" relative="1" as="geometry">
            <mxPoint as="offset" />
            <mxPoint x="477.5699999999999" y="-240.5" as="targetPoint" />
            <Array as="points">
              <mxPoint x="480" y="-260.5" />
            </Array>
            <mxPoint x="459.57" y="-229.25" as="sourcePoint" />
          </mxGeometry>
        </mxCell>
        <mxCell id="AeTwbxAiObhPmluBBlwX-57" value="END" style="ellipse;whiteSpace=wrap;html=1;" parent="WIyWlLk6GJQsqaUBKTNV-1" vertex="1">
          <mxGeometry x="300" y="-210.5" width="80" height="30" as="geometry" />
        </mxCell>
        <mxCell id="AeTwbxAiObhPmluBBlwX-58" value="" style="edgeStyle=orthogonalEdgeStyle;rounded=0;orthogonalLoop=1;jettySize=auto;html=1;entryX=0.5;entryY=0;entryDx=0;entryDy=0;" parent="WIyWlLk6GJQsqaUBKTNV-1" source="AeTwbxAiObhPmluBBlwX-59" target="AeTwbxAiObhPmluBBlwX-55" edge="1">
          <mxGeometry relative="1" as="geometry">
            <mxPoint x="479.44" y="-290.5" as="targetPoint" />
            <Array as="points">
              <mxPoint x="480" y="-320.5" />
              <mxPoint x="480" y="-320.5" />
              <mxPoint x="480" y="-309.5" />
            </Array>
          </mxGeometry>
        </mxCell>
        <mxCell id="AeTwbxAiObhPmluBBlwX-59" value="AL&amp;nbsp;&lt;font style=&quot;font-size: 10px&quot;&gt;&amp;lt;&lt;/font&gt;&lt;font style=&quot;font-size: 13px&quot;&gt;---&lt;/font&gt;&amp;nbsp; CL&lt;br&gt;AX&amp;nbsp;&lt;font style=&quot;font-size: 10px&quot;&gt;&amp;lt;&lt;/font&gt;&lt;font style=&quot;font-size: 13px&quot;&gt;---&lt;/font&gt;&amp;nbsp; AL*AL&lt;span style=&quot;color: rgba(0 , 0 , 0 , 0) ; font-family: monospace ; font-size: 0px&quot;&gt;%3CmxGraphModel%3E%3Croot%3E%3CmxCell%20id%3D%220%22%2F%3E%3CmxCell%20id%3D%221%22%20parent%3D%220%22%2F%3E%3CmxCell%20id%3D%222%22%20value%3D%22CL%26amp%3Bnbsp%3B%26lt%3Bfont%20style%3D%26quot%3Bfont-size%3A%2010px%26quot%3B%26gt%3B%26amp%3Blt%3B%26lt%3B%2Ffont%26gt%3B%26lt%3Bfont%20style%3D%26quot%3Bfont-size%3A%2013px%26quot%3B%26gt%3B---%26lt%3B%2Ffont%26gt%3B%26amp%3Bnbsp%3B%2016%26lt%3Bbr%26gt%3B%22%20style%3D%22rounded%3D1%3BwhiteSpace%3Dwrap%3Bhtml%3D1%3BfontSize%3D12%3Bglass%3D0%3BstrokeWidth%3D1%3Bshadow%3D0%3B%22%20vertex%3D%221%22%20parent%3D%221%22%3E%3CmxGeometry%20x%3D%2274.5%22%20y%3D%22-220%22%20width%3D%22105.5%22%20height%3D%2220%22%20as%3D%22geometry%22%2F%3E%3C%2FmxCell%3E%3C%2Froot%3E%3C%2FmxGraphModel%3E&lt;/span&gt;" style="rounded=1;whiteSpace=wrap;html=1;fontSize=12;glass=0;strokeWidth=1;shadow=0;" parent="WIyWlLk6GJQsqaUBKTNV-1" vertex="1">
          <mxGeometry x="427.57" y="-360.5" width="105.5" height="30" as="geometry" />
        </mxCell>
        <mxCell id="AeTwbxAiObhPmluBBlwX-60" value="AX = BX" style="rhombus;whiteSpace=wrap;html=1;shadow=0;fontFamily=Helvetica;fontSize=12;align=center;strokeWidth=1;spacing=6;spacingTop=-4;" parent="WIyWlLk6GJQsqaUBKTNV-1" vertex="1">
          <mxGeometry x="430.32" y="-260" width="100" height="30" as="geometry" />
        </mxCell>
        <mxCell id="AeTwbxAiObhPmluBBlwX-61" value="Yes" style="rounded=0;html=1;jettySize=auto;orthogonalLoop=1;fontSize=11;endArrow=block;endFill=0;endSize=8;strokeWidth=1;shadow=0;labelBackgroundColor=none;edgeStyle=orthogonalEdgeStyle;exitX=0;exitY=0.5;exitDx=0;exitDy=0;entryX=1;entryY=0.5;entryDx=0;entryDy=0;" parent="WIyWlLk6GJQsqaUBKTNV-1" source="AeTwbxAiObhPmluBBlwX-55" target="AeTwbxAiObhPmluBBlwX-67" edge="1">
          <mxGeometry x="-0.6697" y="10" relative="1" as="geometry">
            <mxPoint as="offset" />
            <mxPoint x="390" y="-310.5" as="targetPoint" />
            <Array as="points">
              <mxPoint x="410" y="-295.5" />
              <mxPoint x="410" y="-320.5" />
            </Array>
            <mxPoint x="450.38" y="-235.5" as="sourcePoint" />
          </mxGeometry>
        </mxCell>
        <mxCell id="AeTwbxAiObhPmluBBlwX-62" value="Yes" style="rounded=0;html=1;jettySize=auto;orthogonalLoop=1;fontSize=11;endArrow=block;endFill=0;endSize=8;strokeWidth=1;shadow=0;labelBackgroundColor=none;edgeStyle=orthogonalEdgeStyle;exitX=0;exitY=0.5;exitDx=0;exitDy=0;" parent="WIyWlLk6GJQsqaUBKTNV-1" source="AeTwbxAiObhPmluBBlwX-60" edge="1">
          <mxGeometry x="-0.812" y="10" relative="1" as="geometry">
            <mxPoint as="offset" />
            <mxPoint x="340" y="-245.5" as="targetPoint" />
            <Array as="points">
              <mxPoint x="340" y="-245.5" />
              <mxPoint x="390" y="-245.5" />
            </Array>
            <mxPoint x="539.44" y="-240.5" as="sourcePoint" />
          </mxGeometry>
        </mxCell>
        <mxCell id="AeTwbxAiObhPmluBBlwX-63" value="No" style="rounded=0;html=1;jettySize=auto;orthogonalLoop=1;fontSize=11;endArrow=block;endFill=0;endSize=8;strokeWidth=1;shadow=0;labelBackgroundColor=none;edgeStyle=orthogonalEdgeStyle;exitX=1;exitY=0.5;exitDx=0;exitDy=0;entryX=0.5;entryY=1;entryDx=0;entryDy=0;" parent="WIyWlLk6GJQsqaUBKTNV-1" source="AeTwbxAiObhPmluBBlwX-60" target="AeTwbxAiObhPmluBBlwX-65" edge="1">
          <mxGeometry x="-0.8498" y="-5" relative="1" as="geometry">
            <mxPoint as="offset" />
            <mxPoint x="560" y="-245.5" as="targetPoint" />
            <Array as="points">
              <mxPoint x="570" y="-245.5" />
            </Array>
            <mxPoint x="487.56999999999994" y="-275.5" as="sourcePoint" />
          </mxGeometry>
        </mxCell>
        <mxCell id="AeTwbxAiObhPmluBBlwX-64" style="edgeStyle=orthogonalEdgeStyle;rounded=0;orthogonalLoop=1;jettySize=auto;html=1;exitX=0.5;exitY=0;exitDx=0;exitDy=0;" parent="WIyWlLk6GJQsqaUBKTNV-1" source="AeTwbxAiObhPmluBBlwX-65" edge="1">
          <mxGeometry relative="1" as="geometry">
            <mxPoint x="480" y="-380.5" as="targetPoint" />
            <Array as="points">
              <mxPoint x="570" y="-380.5" />
            </Array>
          </mxGeometry>
        </mxCell>
        <mxCell id="AeTwbxAiObhPmluBBlwX-65" value="CL&amp;nbsp;&lt;font style=&quot;font-size: 10px&quot;&gt;&amp;lt;&lt;/font&gt;&lt;font style=&quot;font-size: 13px&quot;&gt;---&lt;/font&gt;&amp;nbsp; CL + 1" style="rounded=1;whiteSpace=wrap;html=1;fontSize=12;glass=0;strokeWidth=1;shadow=0;" parent="WIyWlLk6GJQsqaUBKTNV-1" vertex="1">
          <mxGeometry x="525.75" y="-280" width="88.5" height="20" as="geometry" />
        </mxCell>
        <mxCell id="AeTwbxAiObhPmluBBlwX-66" style="edgeStyle=orthogonalEdgeStyle;rounded=0;orthogonalLoop=1;jettySize=auto;html=1;exitX=0.5;exitY=1;exitDx=0;exitDy=0;entryX=0.5;entryY=0;entryDx=0;entryDy=0;" parent="WIyWlLk6GJQsqaUBKTNV-1" source="AeTwbxAiObhPmluBBlwX-67" target="AeTwbxAiObhPmluBBlwX-57" edge="1">
          <mxGeometry relative="1" as="geometry">
            <mxPoint x="340" y="-240.5" as="targetPoint" />
            <Array as="points" />
          </mxGeometry>
        </mxCell>
        <mxCell id="AeTwbxAiObhPmluBBlwX-67" value="CL&amp;nbsp;&lt;font style=&quot;font-size: 10px&quot;&gt;&amp;lt;&lt;/font&gt;&lt;font style=&quot;font-size: 13px&quot;&gt;---&lt;/font&gt;&amp;nbsp; CL - 1" style="rounded=1;whiteSpace=wrap;html=1;fontSize=12;glass=0;strokeWidth=1;shadow=0;" parent="WIyWlLk6GJQsqaUBKTNV-1" vertex="1">
          <mxGeometry x="295.75" y="-330.5" width="88.5" height="20" as="geometry" />
        </mxCell>
        <mxCell id="AeTwbxAiObhPmluBBlwX-68" value="" style="edgeStyle=orthogonalEdgeStyle;rounded=0;orthogonalLoop=1;jettySize=auto;html=1;" parent="WIyWlLk6GJQsqaUBKTNV-1" source="AeTwbxAiObhPmluBBlwX-69" target="AeTwbxAiObhPmluBBlwX-71" edge="1">
          <mxGeometry relative="1" as="geometry" />
        </mxCell>
        <mxCell id="AeTwbxAiObhPmluBBlwX-69" value="AH&amp;nbsp;&lt;font style=&quot;font-size: 10px&quot;&gt;&amp;lt;&lt;/font&gt;&lt;font style=&quot;font-size: 13px&quot;&gt;---&lt;/font&gt;&amp;nbsp;00" style="rounded=1;whiteSpace=wrap;html=1;fontSize=12;glass=0;strokeWidth=1;shadow=0;" parent="WIyWlLk6GJQsqaUBKTNV-1" vertex="1">
          <mxGeometry x="93.02" y="-384" width="100" height="20" as="geometry" />
        </mxCell>
        <mxCell id="AeTwbxAiObhPmluBBlwX-70" value="" style="edgeStyle=orthogonalEdgeStyle;rounded=0;orthogonalLoop=1;jettySize=auto;html=1;" parent="WIyWlLk6GJQsqaUBKTNV-1" source="AeTwbxAiObhPmluBBlwX-71" target="AeTwbxAiObhPmluBBlwX-17" edge="1">
          <mxGeometry relative="1" as="geometry" />
        </mxCell>
        <mxCell id="AeTwbxAiObhPmluBBlwX-71" value="INT 16h" style="shape=process;whiteSpace=wrap;html=1;backgroundOutline=1;" parent="WIyWlLk6GJQsqaUBKTNV-1" vertex="1">
          <mxGeometry x="83.02" y="-344" width="120" height="20" as="geometry" />
        </mxCell>
        <mxCell id="AeTwbxAiObhPmluBBlwX-72" value="" style="edgeStyle=orthogonalEdgeStyle;rounded=0;orthogonalLoop=1;jettySize=auto;html=1;" parent="WIyWlLk6GJQsqaUBKTNV-1" source="AeTwbxAiObhPmluBBlwX-73" target="AeTwbxAiObhPmluBBlwX-75" edge="1">
          <mxGeometry relative="1" as="geometry" />
        </mxCell>
        <mxCell id="AeTwbxAiObhPmluBBlwX-73" value="AH&amp;nbsp;&lt;font style=&quot;font-size: 10px&quot;&gt;&amp;lt;&lt;/font&gt;&lt;font style=&quot;font-size: 13px&quot;&gt;---&lt;/font&gt;&amp;nbsp;00" style="rounded=1;whiteSpace=wrap;html=1;fontSize=12;glass=0;strokeWidth=1;shadow=0;" parent="WIyWlLk6GJQsqaUBKTNV-1" vertex="1">
          <mxGeometry x="93.03" y="-520.5" width="100" height="20" as="geometry" />
        </mxCell>
        <mxCell id="AeTwbxAiObhPmluBBlwX-74" style="edgeStyle=orthogonalEdgeStyle;rounded=0;orthogonalLoop=1;jettySize=auto;html=1;" parent="WIyWlLk6GJQsqaUBKTNV-1" source="AeTwbxAiObhPmluBBlwX-75" target="AeTwbxAiObhPmluBBlwX-16" edge="1">
          <mxGeometry relative="1" as="geometry" />
        </mxCell>
        <mxCell id="AeTwbxAiObhPmluBBlwX-75" value="INT 16h" style="shape=process;whiteSpace=wrap;html=1;backgroundOutline=1;" parent="WIyWlLk6GJQsqaUBKTNV-1" vertex="1">
          <mxGeometry x="83.02" y="-479.5" width="120" height="20" as="geometry" />
        </mxCell>
        <mxCell id="wZddlOsyN2LUeJkW2pRp-3" value="" style="edgeStyle=orthogonalEdgeStyle;rounded=0;orthogonalLoop=1;jettySize=auto;html=1;" edge="1" parent="WIyWlLk6GJQsqaUBKTNV-1" source="wZddlOsyN2LUeJkW2pRp-0" target="wZddlOsyN2LUeJkW2pRp-2">
          <mxGeometry relative="1" as="geometry" />
        </mxCell>
        <mxCell id="wZddlOsyN2LUeJkW2pRp-0" value="main.py" style="ellipse;whiteSpace=wrap;html=1;" vertex="1" parent="WIyWlLk6GJQsqaUBKTNV-1">
          <mxGeometry x="192.27" y="-1090" width="120" height="40" as="geometry" />
        </mxCell>
        <mxCell id="wZddlOsyN2LUeJkW2pRp-2" value="latitudeA, longitude A, latitudeB, longitudeB&amp;nbsp;&lt;font style=&quot;font-size: 10px&quot;&gt;&amp;lt;&lt;/font&gt;&lt;font style=&quot;font-size: 13px&quot;&gt;---&lt;/font&gt;&amp;nbsp;&amp;nbsp;&lt;span style=&quot;background-color: rgb(255, 255, 255);&quot;&gt;pusula1.main_i().randomPositions()&lt;/span&gt;" style="rounded=1;whiteSpace=wrap;html=1;fontSize=12;glass=0;strokeWidth=1;shadow=0;" vertex="1" parent="WIyWlLk6GJQsqaUBKTNV-1">
          <mxGeometry x="22.939999999999984" y="-1030" width="458.67" height="50" as="geometry" />
        </mxCell>
        <mxCell id="wZddlOsyN2LUeJkW2pRp-4" value="" style="edgeStyle=orthogonalEdgeStyle;rounded=0;orthogonalLoop=1;jettySize=auto;html=1;entryX=0.5;entryY=0;entryDx=0;entryDy=0;" edge="1" parent="WIyWlLk6GJQsqaUBKTNV-1" source="wZddlOsyN2LUeJkW2pRp-5" target="wZddlOsyN2LUeJkW2pRp-19">
          <mxGeometry relative="1" as="geometry">
            <mxPoint x="633.95" y="125.5" as="targetPoint" />
          </mxGeometry>
        </mxCell>
        <mxCell id="wZddlOsyN2LUeJkW2pRp-5" value="pusula1" style="ellipse;whiteSpace=wrap;html=1;" vertex="1" parent="WIyWlLk6GJQsqaUBKTNV-1">
          <mxGeometry x="573.95" y="60" width="120" height="40" as="geometry" />
        </mxCell>
        <mxCell id="wZddlOsyN2LUeJkW2pRp-19" value="Classes" style="swimlane;fontStyle=0;childLayout=stackLayout;horizontal=1;startSize=30;horizontalStack=0;resizeParent=1;resizeParentMax=0;resizeLast=0;collapsible=1;marginBottom=0;labelBackgroundColor=#FFFFFF;fontFamily=Helvetica;fontColor=#000000;" vertex="1" parent="WIyWlLk6GJQsqaUBKTNV-1">
          <mxGeometry x="563.95" y="130" width="140" height="150" as="geometry" />
        </mxCell>
        <mxCell id="wZddlOsyN2LUeJkW2pRp-20" value="main_i" style="text;strokeColor=none;fillColor=none;align=left;verticalAlign=middle;spacingLeft=4;spacingRight=4;overflow=hidden;points=[[0,0.5],[1,0.5]];portConstraint=eastwest;rotatable=0;labelBackgroundColor=#FFFFFF;fontFamily=Helvetica;fontColor=#000000;" vertex="1" parent="wZddlOsyN2LUeJkW2pRp-19">
          <mxGeometry y="30" width="140" height="30" as="geometry" />
        </mxCell>
        <mxCell id="wZddlOsyN2LUeJkW2pRp-21" value="world_map" style="text;strokeColor=none;fillColor=none;align=left;verticalAlign=middle;spacingLeft=4;spacingRight=4;overflow=hidden;points=[[0,0.5],[1,0.5]];portConstraint=eastwest;rotatable=0;labelBackgroundColor=#FFFFFF;fontFamily=Helvetica;fontColor=#000000;" vertex="1" parent="wZddlOsyN2LUeJkW2pRp-19">
          <mxGeometry y="60" width="140" height="30" as="geometry" />
        </mxCell>
        <mxCell id="wZddlOsyN2LUeJkW2pRp-22" value="direction_of_A" style="text;strokeColor=none;fillColor=none;align=left;verticalAlign=middle;spacingLeft=4;spacingRight=4;overflow=hidden;points=[[0,0.5],[1,0.5]];portConstraint=eastwest;rotatable=0;labelBackgroundColor=#FFFFFF;fontFamily=Helvetica;fontColor=#000000;" vertex="1" parent="wZddlOsyN2LUeJkW2pRp-19">
          <mxGeometry y="90" width="140" height="30" as="geometry" />
        </mxCell>
        <mxCell id="wZddlOsyN2LUeJkW2pRp-23" value="direction_of_B" style="text;strokeColor=none;fillColor=none;align=left;verticalAlign=middle;spacingLeft=4;spacingRight=4;overflow=hidden;points=[[0,0.5],[1,0.5]];portConstraint=eastwest;rotatable=0;labelBackgroundColor=#FFFFFF;fontFamily=Helvetica;fontColor=#000000;" vertex="1" parent="wZddlOsyN2LUeJkW2pRp-19">
          <mxGeometry y="120" width="140" height="30" as="geometry" />
        </mxCell>
        <mxCell id="wZddlOsyN2LUeJkW2pRp-24" value="main_i Functions" style="swimlane;fontStyle=0;childLayout=stackLayout;horizontal=1;startSize=30;horizontalStack=0;resizeParent=1;resizeParentMax=0;resizeLast=0;collapsible=1;marginBottom=0;labelBackgroundColor=#FFFFFF;fontFamily=Helvetica;fontColor=#000000;" vertex="1" parent="WIyWlLk6GJQsqaUBKTNV-1">
          <mxGeometry x="770" y="160" width="140" height="90" as="geometry" />
        </mxCell>
        <mxCell id="wZddlOsyN2LUeJkW2pRp-25" value="__init__(self)" style="text;strokeColor=none;fillColor=none;align=left;verticalAlign=middle;spacingLeft=4;spacingRight=4;overflow=hidden;points=[[0,0.5],[1,0.5]];portConstraint=eastwest;rotatable=0;labelBackgroundColor=#FFFFFF;fontFamily=Helvetica;fontColor=#000000;" vertex="1" parent="wZddlOsyN2LUeJkW2pRp-24">
          <mxGeometry y="30" width="140" height="30" as="geometry" />
        </mxCell>
        <mxCell id="wZddlOsyN2LUeJkW2pRp-26" value="randomPositions(self)" style="text;strokeColor=none;fillColor=none;align=left;verticalAlign=middle;spacingLeft=4;spacingRight=4;overflow=hidden;points=[[0,0.5],[1,0.5]];portConstraint=eastwest;rotatable=0;labelBackgroundColor=#FFFFFF;fontFamily=Helvetica;fontColor=#000000;" vertex="1" parent="wZddlOsyN2LUeJkW2pRp-24">
          <mxGeometry y="60" width="140" height="30" as="geometry" />
        </mxCell>
        <mxCell id="wZddlOsyN2LUeJkW2pRp-28" style="edgeStyle=orthogonalEdgeStyle;rounded=0;orthogonalLoop=1;jettySize=auto;html=1;exitX=1;exitY=0.5;exitDx=0;exitDy=0;fontFamily=Helvetica;fontColor=#000000;entryX=0;entryY=0.5;entryDx=0;entryDy=0;" edge="1" parent="WIyWlLk6GJQsqaUBKTNV-1" source="wZddlOsyN2LUeJkW2pRp-21" target="wZddlOsyN2LUeJkW2pRp-25">
          <mxGeometry relative="1" as="geometry" />
        </mxCell>
        <mxCell id="wZddlOsyN2LUeJkW2pRp-29" value="main_i Functions" style="swimlane;fontStyle=0;childLayout=stackLayout;horizontal=1;startSize=30;horizontalStack=0;resizeParent=1;resizeParentMax=0;resizeLast=0;collapsible=1;marginBottom=0;labelBackgroundColor=#FFFFFF;fontFamily=Helvetica;fontColor=#000000;" vertex="1" parent="WIyWlLk6GJQsqaUBKTNV-1">
          <mxGeometry x="383.95000000000005" y="160" width="140" height="90" as="geometry" />
        </mxCell>
        <mxCell id="wZddlOsyN2LUeJkW2pRp-30" value="__init__(self)" style="text;strokeColor=none;fillColor=none;align=left;verticalAlign=middle;spacingLeft=4;spacingRight=4;overflow=hidden;points=[[0,0.5],[1,0.5]];portConstraint=eastwest;rotatable=0;labelBackgroundColor=#FFFFFF;fontFamily=Helvetica;fontColor=#000000;" vertex="1" parent="wZddlOsyN2LUeJkW2pRp-29">
          <mxGeometry y="30" width="140" height="30" as="geometry" />
        </mxCell>
        <mxCell id="wZddlOsyN2LUeJkW2pRp-31" value="randomPositions(self)" style="text;strokeColor=none;fillColor=none;align=left;verticalAlign=middle;spacingLeft=4;spacingRight=4;overflow=hidden;points=[[0,0.5],[1,0.5]];portConstraint=eastwest;rotatable=0;labelBackgroundColor=#FFFFFF;fontFamily=Helvetica;fontColor=#000000;" vertex="1" parent="wZddlOsyN2LUeJkW2pRp-29">
          <mxGeometry y="60" width="140" height="30" as="geometry" />
        </mxCell>
        <mxCell id="wZddlOsyN2LUeJkW2pRp-32" value="" style="edgeStyle=orthogonalEdgeStyle;rounded=0;orthogonalLoop=1;jettySize=auto;html=1;fontFamily=Helvetica;fontColor=#000000;" edge="1" parent="WIyWlLk6GJQsqaUBKTNV-1" source="wZddlOsyN2LUeJkW2pRp-21" target="wZddlOsyN2LUeJkW2pRp-31">
          <mxGeometry relative="1" as="geometry" />
        </mxCell>
      </root>
    </mxGraphModel>
  </diagram>
</mxfile>
